<?xml version="1.0" encoding="utf-8"?>
<!-- Generator: Adobe Illustrator 26.0.0, SVG Export Plug-In . SVG Version: 6.00 Build 0)  -->
<svg version="1.1" id="Capa_1" xmlns="http://www.w3.org/2000/svg" xmlns:xlink="http://www.w3.org/1999/xlink" x="0px" y="0px"
	 viewBox="0 0 264 349.7" style="enable-background:new 0 0 264 349.7;" xml:space="preserve">
<style type="text/css">
	.st0{fill:#FFFFFF;}
</style>
<g>
	<path class="st0" d="M132,0C59.2,0,0,59.2,0,132c0,30.1,21.2,74.7,62.9,132.5c30.5,42.2,61.4,76.6,61.7,77l7.4,8.2l7.4-8.2
		c0.3-0.3,31.2-34.7,61.7-77C242.8,206.6,264,162.1,264,132C264,59.2,204.8,0,132,0z M132,319.6C94.9,276.9,20,180.6,20,132
		C20,70.2,70.2,20,132,20s112,50.2,112,112C244,180.5,169,276.9,132,319.6z"/>
	<circle class="st0" cx="132" cy="132" r="49.7"/>
</g>
</svg>
